<svg width="40" height="40" viewBox="0 0 40 40" fill="none" xmlns="http://www.w3.org/2000/svg">
<path fill-rule="evenodd" clip-rule="evenodd" d="M27.2235 11.2921C22.2505 10.7374 17.2314 10.7374 12.2585 11.2921C12.1822 11.3009 12.1097 11.3299 12.0485 11.3762C11.9873 11.4225 11.9397 11.4844 11.9106 11.5554C11.8815 11.6264 11.872 11.7039 11.883 11.7799C11.8941 11.8558 11.9253 11.9274 11.9735 11.9871L16.3697 17.4221C17.9444 19.3689 18.8035 21.797 18.8035 24.3009V27.9121L20.6785 29.2871V24.2996C20.6787 21.7961 21.5378 19.3685 23.1122 17.4221L27.5085 11.9871C27.5566 11.9274 27.5878 11.8558 27.5989 11.7799C27.61 11.7039 27.6004 11.6264 27.5713 11.5554C27.5422 11.4844 27.4946 11.4225 27.4334 11.3762C27.3722 11.3299 27.2997 11.3009 27.2235 11.2921ZM12.051 9.42837C17.1621 8.85721 22.321 8.85721 27.4322 9.42837C29.2397 9.63087 30.111 11.7509 28.9672 13.1659L24.571 18.6009C23.2658 20.2139 22.5536 22.2259 22.5535 24.3009V31.1371C22.5536 31.3105 22.5056 31.4805 22.4149 31.6283C22.3242 31.776 22.1943 31.8957 22.0397 31.9741C21.885 32.0524 21.7117 32.0864 21.5389 32.0721C21.3661 32.0579 21.2007 31.996 21.061 31.8934L17.311 29.1434C17.1923 29.0562 17.0958 28.9423 17.0294 28.8109C16.9629 28.6795 16.9283 28.5344 16.9285 28.3871V24.2996C16.9285 22.2246 16.216 20.2134 14.9122 18.5996L10.516 13.1671C9.37095 11.7521 10.241 9.63087 12.051 9.42837Z" fill="white"/>
</svg>
