<svg width="45" height="45" viewBox="0 0 45 45" fill="none" xmlns="http://www.w3.org/2000/svg">
<path d="M10.6172 15.5391C11.25 21.1641 16.3828 26.0156 22.5 26.0156C29.1094 26.0156 34.5234 20.3906 34.5234 14.2734V14.1328C27.6328 13.2188 18.9844 18.2109 10.6172 15.5391Z" fill="#961623"/>
<path opacity="0.8" d="M37.9688 14.3438C37.9688 6.32812 33.9609 1.40625 33.9609 1.40625H11.0391C11.0391 1.40625 7.03125 6.39844 7.03125 14.3438C7.03125 21.9375 13.5703 29.0391 21.7266 29.4609C21.6562 33.8906 21.2344 38.4609 20.1797 40.0781C18.6328 42.3281 13.2891 41.2031 13.2891 43.5938H31.7109C31.7109 41.2031 26.3672 42.3281 24.8203 40.0781C23.7656 38.4609 23.3437 33.8906 23.2734 29.4609C31.4297 29.0391 37.9688 22.0078 37.9688 14.3438ZM22.5 27.6328C15.6094 27.6328 9.91406 22.1484 9.21094 15.8906C9.14063 15.4687 9.14062 14.9766 9.14062 14.5547C9.14062 7.59375 12.5859 3.375 12.5859 3.375H32.4141C32.4141 3.375 35.7891 7.59375 35.8594 14.4141V14.5547C35.8594 21.3047 29.8828 27.6328 22.5 27.6328Z" fill="white"/>
</svg>
